<svg width="131" height="33" viewBox="0 0 131 33" fill="none" xmlns="http://www.w3.org/2000/svg">
<path fill-rule="evenodd" clip-rule="evenodd" d="M10.9645 9.4359C10.632 9.4359 10.3089 9.47693 10 9.55416C10.1988 7.76058 10.9148 6.12398 11.9963 4.79492C16.2971 5.30464 19.6332 8.96455 19.6332 13.4029V19.7294C19.4605 19.7391 19.2864 19.744 19.1112 19.744C15.6706 19.744 12.6709 17.8483 11.1028 15.0423H14.9315V13.4029C14.9315 11.212 13.1554 9.4359 10.9645 9.4359Z" fill="white"/>
<path fill-rule="evenodd" clip-rule="evenodd" d="M0.256424 13.9507C0.256424 8.62496 4.57377 4.30762 9.89949 4.30762C12.5623 4.30762 14.9731 5.38695 16.7182 7.132C15.1095 5.52336 12.9351 4.48044 10.5191 4.32724C8.89398 6.12575 7.90441 8.50947 7.90441 11.1243C7.90441 11.3194 7.90991 11.5131 7.92078 11.7055C7.29901 12.2538 6.90681 13.0565 6.90681 13.9507V14.6157H12.8922L8.5214 14.6158C9.94447 18.4968 13.672 21.2661 18.0462 21.2661C18.5546 21.2661 19.0543 21.2287 19.5425 21.1565V25.2563H12.8922V21.2661H6.90681V25.2563H0.256424V17.9409V13.9507Z" fill="white"/>
<path d="M41.726 17.862C41.726 16.63 41.968 15.5373 42.452 14.584C42.9507 13.6307 43.618 12.8973 44.454 12.384C45.3047 11.8707 46.2507 11.614 47.292 11.614C48.2013 11.614 48.9933 11.7973 49.668 12.164C50.3573 12.5307 50.9073 12.9927 51.318 13.55V11.812H54.42V24H51.318V22.218C50.922 22.79 50.372 23.2667 49.668 23.648C48.9787 24.0147 48.1793 24.198 47.27 24.198C46.2433 24.198 45.3047 23.934 44.454 23.406C43.618 22.878 42.9507 22.1373 42.452 21.184C41.968 20.216 41.726 19.1087 41.726 17.862ZM51.318 17.906C51.318 17.158 51.1713 16.52 50.878 15.992C50.5847 15.4493 50.1887 15.0387 49.69 14.76C49.1913 14.4667 48.656 14.32 48.084 14.32C47.512 14.32 46.984 14.4593 46.5 14.738C46.016 15.0167 45.62 15.4273 45.312 15.97C45.0187 16.498 44.872 17.1287 44.872 17.862C44.872 18.5953 45.0187 19.2407 45.312 19.798C45.62 20.3407 46.016 20.7587 46.5 21.052C46.9987 21.3453 47.5267 21.492 48.084 21.492C48.656 21.492 49.1913 21.3527 49.69 21.074C50.1887 20.7807 50.5847 20.37 50.878 19.842C51.1713 19.2993 51.318 18.654 51.318 17.906ZM64.1822 11.636C65.6342 11.636 66.8075 12.098 67.7022 13.022C68.5968 13.9313 69.0442 15.2073 69.0442 16.85V24H65.9642V17.268C65.9642 16.3 65.7222 15.5593 65.2382 15.046C64.7542 14.518 64.0942 14.254 63.2582 14.254C62.4075 14.254 61.7328 14.518 61.2342 15.046C60.7502 15.5593 60.5082 16.3 60.5082 17.268V24H57.4282V11.812H60.5082V13.33C60.9188 12.802 61.4395 12.3913 62.0702 12.098C62.7155 11.79 63.4195 11.636 64.1822 11.636ZM75.5591 14.342V20.238C75.5591 20.6487 75.6544 20.9493 75.8451 21.14C76.0504 21.316 76.3877 21.404 76.8571 21.404H78.2871V24H76.3511C73.7551 24 72.4571 22.7387 72.4571 20.216V14.342H71.0051V11.812H72.4571V8.798H75.5591V11.812H78.2871V14.342H75.5591ZM85.9144 24.198C84.741 24.198 83.685 23.9413 82.7464 23.428C81.8077 22.9 81.067 22.1593 80.5244 21.206C79.9964 20.2527 79.7324 19.1527 79.7324 17.906C79.7324 16.6593 80.0037 15.5593 80.5464 14.606C81.1037 13.6527 81.859 12.9193 82.8124 12.406C83.7657 11.878 84.829 11.614 86.0024 11.614C87.1757 11.614 88.239 11.878 89.1924 12.406C90.1457 12.9193 90.8937 13.6527 91.4364 14.606C91.9937 15.5593 92.2724 16.6593 92.2724 17.906C92.2724 19.1527 91.9864 20.2527 91.4144 21.206C90.857 22.1593 90.0944 22.9 89.1264 23.428C88.173 23.9413 87.1024 24.198 85.9144 24.198ZM85.9144 21.514C86.4717 21.514 86.9924 21.382 87.4764 21.118C87.975 20.8393 88.371 20.4287 88.6644 19.886C88.9577 19.3433 89.1044 18.6833 89.1044 17.906C89.1044 16.7473 88.7964 15.86 88.1804 15.244C87.579 14.6133 86.8384 14.298 85.9584 14.298C85.0784 14.298 84.3377 14.6133 83.7364 15.244C83.1497 15.86 82.8564 16.7473 82.8564 17.906C82.8564 19.0647 83.1424 19.9593 83.7144 20.59C84.301 21.206 85.0344 21.514 85.9144 21.514ZM99.9437 24.198C98.7703 24.198 97.7143 23.9413 96.7757 23.428C95.837 22.9 95.0963 22.1593 94.5537 21.206C94.0257 20.2527 93.7617 19.1527 93.7617 17.906C93.7617 16.6593 94.033 15.5593 94.5757 14.606C95.133 13.6527 95.8883 12.9193 96.8417 12.406C97.795 11.878 98.8583 11.614 100.032 11.614C101.205 11.614 102.268 11.878 103.222 12.406C104.175 12.9193 104.923 13.6527 105.466 14.606C106.023 15.5593 106.302 16.6593 106.302 17.906C106.302 19.1527 106.016 20.2527 105.444 21.206C104.886 22.1593 104.124 22.9 103.156 23.428C102.202 23.9413 101.132 24.198 99.9437 24.198ZM99.9437 21.514C100.501 21.514 101.022 21.382 101.506 21.118C102.004 20.8393 102.4 20.4287 102.694 19.886C102.987 19.3433 103.134 18.6833 103.134 17.906C103.134 16.7473 102.826 15.86 102.21 15.244C101.608 14.6133 100.868 14.298 99.9877 14.298C99.1077 14.298 98.367 14.6133 97.7657 15.244C97.179 15.86 96.8857 16.7473 96.8857 17.906C96.8857 19.0647 97.1717 19.9593 97.7437 20.59C98.3303 21.206 99.0637 21.514 99.9437 21.514ZM111.641 7.72V24H108.561V7.72H111.641ZM119.348 24.198C118.351 24.198 117.456 24.022 116.664 23.67C115.872 23.3033 115.241 22.812 114.772 22.196C114.317 21.58 114.068 20.898 114.024 20.15H117.126C117.185 20.6193 117.412 21.008 117.808 21.316C118.219 21.624 118.725 21.778 119.326 21.778C119.913 21.778 120.367 21.6607 120.69 21.426C121.027 21.1913 121.196 20.8907 121.196 20.524C121.196 20.128 120.991 19.8347 120.58 19.644C120.184 19.4387 119.546 19.2187 118.666 18.984C117.757 18.764 117.009 18.5367 116.422 18.302C115.85 18.0673 115.351 17.708 114.926 17.224C114.515 16.74 114.31 16.0873 114.31 15.266C114.31 14.5913 114.501 13.9753 114.882 13.418C115.278 12.8607 115.835 12.4207 116.554 12.098C117.287 11.7753 118.145 11.614 119.128 11.614C120.58 11.614 121.739 11.9807 122.604 12.714C123.469 13.4327 123.946 14.408 124.034 15.64H121.086C121.042 15.156 120.837 14.7747 120.47 14.496C120.118 14.2027 119.641 14.056 119.04 14.056C118.483 14.056 118.05 14.1587 117.742 14.364C117.449 14.5693 117.302 14.8553 117.302 15.222C117.302 15.6327 117.507 15.948 117.918 16.168C118.329 16.3733 118.967 16.586 119.832 16.806C120.712 17.026 121.438 17.2533 122.01 17.488C122.582 17.7227 123.073 18.0893 123.484 18.588C123.909 19.072 124.129 19.7173 124.144 20.524C124.144 21.228 123.946 21.8587 123.55 22.416C123.169 22.9733 122.611 23.4133 121.878 23.736C121.159 24.044 120.316 24.198 119.348 24.198ZM128.036 24.154C127.479 24.154 127.017 23.9853 126.65 23.648C126.298 23.296 126.122 22.8633 126.122 22.35C126.122 21.8367 126.298 21.4113 126.65 21.074C127.017 20.722 127.479 20.546 128.036 20.546C128.579 20.546 129.026 20.722 129.378 21.074C129.73 21.4113 129.906 21.8367 129.906 22.35C129.906 22.8633 129.73 23.296 129.378 23.648C129.026 23.9853 128.579 24.154 128.036 24.154Z" fill="white" fill-opacity="0.9"/>
</svg>
