<svg width="65" height="63" viewBox="0 0 65 63" fill="none" xmlns="http://www.w3.org/2000/svg">
<g opacity="0.78">
<mask id="mask0_26_121" style="mask-type:alpha" maskUnits="userSpaceOnUse" x="0" y="0" width="65" height="63">
<path d="M45.9135 62.4968C46.4286 62.6926 46.9797 62.7829 47.5322 62.7622C48.0848 62.7416 48.6271 62.6103 49.1254 62.3766L62.4557 56.1266C63.1422 55.8045 63.7215 55.3001 64.1269 54.6714C64.5323 54.0427 64.7473 53.3153 64.7472 52.5728V10.193C64.7473 9.45053 64.5323 8.72315 64.1269 8.09451C63.7215 7.46587 63.1422 6.96151 62.4557 6.63946L49.1256 0.389211C48.3724 0.0360385 47.5251 -0.0802463 46.7011 0.0564526C45.877 0.193151 45.117 0.576073 44.5261 1.15222L19.0068 23.8382L7.89074 15.6164C7.38932 15.2455 6.77047 15.0574 6.14158 15.0846C5.51268 15.1119 4.91342 15.3528 4.44777 15.7656L0.882669 18.9257C-0.292917 19.9675 -0.294186 21.7696 0.879622 22.8132L10.5197 31.3829L0.879622 39.9523C-0.294186 40.9962 -0.292917 42.798 0.882669 43.8401L4.44777 47C4.91339 47.4128 5.51264 47.6538 6.14153 47.6811C6.77043 47.7084 7.38929 47.5203 7.89074 47.1494L19.0068 38.9273L44.5261 61.6133C44.9207 61.9984 45.3931 62.2993 45.9135 62.4968ZM48.5703 17.0607L29.2069 31.3829L48.5703 45.7048V17.0607Z" fill="white"/>
</mask>
<g mask="url(#mask0_26_121)">
<path d="M62.4953 6.64916L49.1545 0.390251C48.4011 0.0367929 47.5535 -0.0797396 46.7291 0.0567794C45.9048 0.193298 45.1443 0.576119 44.553 1.15227L0.880099 39.9524C-0.294472 40.9962 -0.292948 42.7981 0.883145 43.8402L4.45053 47C4.91657 47.4129 5.51619 47.6539 6.14545 47.6812C6.77471 47.7085 7.39394 47.5204 7.89578 47.1495L60.4879 8.27289C62.2523 6.96881 64.7865 8.19496 64.7865 10.3528V10.2019C64.7865 9.45963 64.5715 8.73242 64.1661 8.10392C63.7608 7.47542 63.1817 6.97117 62.4953 6.64916Z" fill="#0065A9"/>
<path d="M62.4953 56.1158L49.1545 62.3747C48.4011 62.7281 47.5535 62.8446 46.7292 62.7081C45.9048 62.5716 45.1443 62.1888 44.553 61.6127L0.880099 22.8126C-0.294472 21.769 -0.292948 19.9669 0.883145 18.9251L4.45053 15.7649C4.9166 15.3521 5.51624 15.1111 6.1455 15.0839C6.77476 15.0566 7.39397 15.2448 7.89578 15.6158L60.4879 54.4921C62.2523 55.7962 64.7865 54.57 64.7865 52.4119V52.5631C64.7865 53.3053 64.5714 54.0325 64.1661 54.661C63.7608 55.2895 63.1816 55.7938 62.4953 56.1158Z" fill="#007ACC"/>
<path d="M49.1126 62.3798C48.359 62.733 47.5114 62.8493 46.6869 62.7127C45.8625 62.5761 45.102 62.1932 44.5106 61.617C46.0038 63.0718 48.5573 62.0413 48.5573 59.9834V2.78904C48.5573 0.731112 46.0038 -0.299339 44.5106 1.15566C45.102 0.57947 45.8624 0.196552 46.6869 0.059863C47.5113 -0.0768265 48.359 0.039466 49.1126 0.392659L62.4511 6.64291C63.1379 6.96474 63.7175 7.46901 64.1231 8.09767C64.5287 8.72634 64.7439 9.45383 64.7439 10.1964V52.5765C64.7439 54.0919 63.8527 55.4734 62.4511 56.13L49.1126 62.38V62.3798Z" fill="#1F9CF0"/>
<path d="M45.9135 62.4965C46.4287 62.6922 46.9797 62.7826 47.5322 62.7619C48.0848 62.7412 48.6271 62.6099 49.1254 62.3763L62.4554 56.126C63.142 55.804 63.7214 55.2997 64.1268 54.671C64.5322 54.0424 64.7473 53.315 64.7472 52.5725V10.1926C64.7473 9.45021 64.5323 8.72283 64.1269 8.09419C63.7215 7.46555 63.1422 6.96119 62.4557 6.63914L49.1251 0.388643C48.3719 0.0355266 47.5247 -0.0807273 46.7007 0.0559703C45.8767 0.192668 45.1167 0.575557 44.5259 1.15165L19.0068 23.8379L7.89074 15.6161C7.38932 15.2452 6.77047 15.057 6.14158 15.0843C5.51268 15.1116 4.91342 15.3525 4.44777 15.7652L0.882669 18.9254C-0.292917 19.9672 -0.294186 21.7693 0.879622 22.8129L10.5197 31.3826L0.879622 39.952C-0.294186 40.9958 -0.292917 42.7977 0.882669 43.8398L4.44777 46.9997C4.91339 47.4125 5.51264 47.6534 6.14153 47.6807C6.77043 47.708 7.38929 47.52 7.89074 47.1491L19.0068 38.927L44.5259 61.613C44.9205 61.9981 45.393 62.299 45.9135 62.4965ZM48.5703 17.0602L29.2069 31.3826L48.5703 45.7045V17.0604V17.0602Z" fill="url(#paint0_linear_26_121)" fill-opacity="0.25"/>
</g>
</g>
<defs>
<linearGradient id="paint0_linear_26_121" x1="32.3737" y1="0.000244141" x2="32.3737" y2="62.7648" gradientUnits="userSpaceOnUse">
<stop stop-color="white"/>
<stop offset="1" stop-color="white" stop-opacity="0"/>
</linearGradient>
</defs>
</svg>
